<?xml version="1.0" encoding="iso-8859-1"?>
<!DOCTYPE svg PUBLIC "-//W3C//DTD SVG 1.1//EN" "http://www.w3.org/Graphics/SVG/1.1/DTD/svg11.dtd">
<svg version="1.1" id="Layer_1" xmlns="http://www.w3.org/2000/svg" xmlns:xlink="http://www.w3.org/1999/xlink" x="0px" y="0px"
	 viewBox="0 0 30 30" style="enable-background:new 0 0 30 30;" xml:space="preserve">
<style type="text/css">
	.st0{display:none;}
	.st1{display:inline;fill:#FFFFFF;stroke:#0071BC;stroke-miterlimit:10;}
	.st2{fill:#FFFFFF;stroke:#CC3300;stroke-width:2;stroke-miterlimit:10;}
	.st3{fill:none;stroke:#CC3300;stroke-width:2;stroke-miterlimit:10;}
	.st4{fill:none;stroke:#CC3300;stroke-width:3;stroke-linecap:round;stroke-miterlimit:10;}
</style>
<g id="Layer_2_1_" class="st0">
	<path class="st1" d="M4,13.8C4,8,8.9,3.2,15,3.2S26,8,26,13.8c0,4.5-3.2,9.1-6.6,9.7c-1.6,0.3-2.2,0.3-2.9,1.1
		c-0.7,0.8-1.9,2.1-1.9,2.1s-1.5-2.4-2.3-3.2c-0.6-0.7-2.4-0.4-2.9-0.5C7,22.9,4,18.8,4,13.8z"/>
	<path class="st1" d="M15,25"/>
</g>
<g id="Layer_3">
	<g>
		<circle class="st2" cx="15" cy="12.7" r="11.1"/>
		<polygon class="st2" points="14.9,27.8 17.3,23.9 12.7,23.8 		"/>
	</g>
</g>
<g id="Layer_1_1_">
	<title>anchorai</title>
	<circle class="st3" cx="15" cy="6.7" r="2"/>
	<line class="st4" x1="15" y1="20.4" x2="15" y2="9.5"/>
	<path class="st4" d="M20.1,16.1c0,1.7-2.5,4.7-5.3,4.7s-4.9-3-4.9-4.7"/>
	<line class="st3" x1="12.3" y1="11" x2="17.7" y2="11"/>
</g>
</svg>