<?xml version="1.0" encoding="UTF-8"?><!DOCTYPE svg PUBLIC "-//W3C//DTD SVG 1.1//EN" "http://www.w3.org/Graphics/SVG/1.1/DTD/svg11.dtd"><svg id="Layer_1" data-name="Layer 1" xmlns="http://www.w3.org/2000/svg" viewBox="0 0 22 36.36"><defs><style>.cls-1{fill:#ededed;}.cls-2{fill:#2e2e93;}</style></defs><title>ferry</title><path class="cls-1" d="M20,31.27l-9.5,5.18V11.69l9.07-7.42a.69.69,0,0,1,.86,0l9.07,7.42V36.45Z" transform="translate(-8.97 -2.62)"/><path class="cls-2" d="M20,5.86l8,6.54V33.93l-6.56-3.58L20,29.56l-1.44.79L12,33.93V12.4l8-6.54m0-3.24a2.16,2.16,0,0,0-1.38.49L9,11V39l11-6,11,6V11L21.35,3.11A2.16,2.16,0,0,0,20,2.62Z" transform="translate(-8.97 -2.62)"/></svg>