<?xml version="1.0" encoding="iso-8859-1"?>
<svg version="1.1" xmlns="http://www.w3.org/2000/svg" xmlns:xlink="http://www.w3.org/1999/xlink" x="0px" y="0px"
	 viewBox="0 0 18 18" style="enable-background:new 0 0 18 18;" xml:space="preserve">
<style type="text/css">
	.st0{fill:#6D6D6D;}
	.st1{display:none;}
	.st2{display:inline;fill:none;stroke:#000000;stroke-miterlimit:10;}
	.st3{display:inline;fill:none;stroke:#0A7F2E;stroke-width:2;stroke-miterlimit:10;}
	.st4{display:inline;fill:none;stroke:#0A7F2E;stroke-width:3;stroke-linecap:round;stroke-miterlimit:10;}
	.st5{display:inline;fill:none;stroke:#000000;stroke-width:2;stroke-linecap:round;stroke-miterlimit:10;}
</style>
<g id="Layer_2">
	<g>
		<path class="st0" d="M16.5,16.2L15.7,17c-0.5,0.5-1.2,0.4-1.7,0l-5.9-6.1c-0.5-0.5-0.4-1.2,0-1.7L9,8.5c0.5-0.5,1.2-0.4,1.7,0
			l5.9,6.1C17,15,17,15.8,16.5,16.2z"/>
		<rect x="6.5" y="3.8" transform="matrix(0.7156 -0.6985 0.6985 0.7156 -3.114 7.0731)" class="st0" width="1.3" height="7.1"/>
		<polygon class="st0" points="5.1,2.5 5.5,4.5 4.3,5.7 2.3,5.2 1.4,4.3 0.3,1.3 1.2,0.4 4.3,1.7 		"/>
	</g>
</g>
<g id="Layer_3">
	<g>
		<path class="st0" d="M1.2,16.1L1.2,16.1c-0.9-0.9-0.9-2.3,0-3.2L9.7,5c0.9-0.9,1.8-1.3,2.6-0.4l0,0c0.9,0.9,0.5,1.7-0.4,2.6
			l-7.7,8.9C3.5,17,2.1,17,1.2,16.1z"/>
		<path class="st0" d="M12.5,7.4L10,4.8C9.2,4,9.5,3.2,10.3,2.4l0,0c0.8-0.8,2.1-0.8,2.9,0l1.5,1.4c0.8,0.8,0.8,2.1,0,2.9l0,0
			C13.9,7.5,13.3,8.2,12.5,7.4z"/>
		<path class="st0" d="M14.8,8.3l-1-1c-0.2-0.2-0.2-0.6,0-0.9l0.5-0.5c0.2-0.2,0.6-0.2,0.9,0l1,1c0.2,0.2,0.2,0.6,0,0.9l-0.5,0.5
			C15.4,8.5,15,8.5,14.8,8.3z"/>
		<rect x="14.6" y="5.5" transform="matrix(0.7164 0.6977 -0.6977 0.7164 9.7881 -8.6968)" class="st0" width="2" height="4.4"/>
		<path class="st0" d="M9.2,0.9C8.1,2.1,7.6,2.8,9.8,3c0.7,0.7,1.3,1.1,2,0.5s1.8-0.6-0.1-2.5C10.9,0.3,10.2-0.1,9.2,0.9z"/>
	</g>
</g>
<g id="Layer_1" class="st1">
	<title>anchorai</title>
	<path class="st2" d="M9,11"/>
	<path class="st2" d="M9,11"/>
	<path class="st2" d="M9,14.1"/>
	<path class="st2" d="M9,16.4"/>
	<path class="st2" d="M9,14.1"/>
	<path class="st2" d="M9,16.4"/>
	<path class="st2" d="M9,16.4"/>
	<path class="st2" d="M9,14.1"/>
	<path class="st2" d="M9,14.1"/>
	<path class="st2" d="M9,16.4"/>
	<path class="st2" d="M9,16.4"/>
	<path class="st2" d="M9,14.1"/>
	<path class="st2" d="M9,14.1"/>
	<path class="st2" d="M9,16.4"/>
	<path class="st2" d="M9,16.4"/>
	<path class="st2" d="M9,14.9"/>
	<path class="st2" d="M9,14.9"/>
	<path class="st2" d="M18.2,16.4"/>
	<circle class="st3" cx="9" cy="2.7" r="2"/>
	<line class="st4" x1="9" y1="16.4" x2="9" y2="5.5"/>
	<path class="st5" d="M9,13.7"/>
	<path class="st5" d="M9,16"/>
	<path class="st5" d="M9,13.7"/>
	<path class="st4" d="M14.1,12.1c0,1.7-2.5,4.7-5.3,4.7s-4.9-3-4.9-4.7"/>
	<line class="st3" x1="6.3" y1="7" x2="11.7" y2="7"/>
</g>
</svg>
